<svg width="156" height="132" viewBox="0 0 156 132" fill="none" xmlns="http://www.w3.org/2000/svg">
<path d="M111.157 4.82293C90.1037 -3.41429 60.9494 -0.284846 44.8381 14.4236C33.4623 24.8089 42.2669 27.7689 50.0227 46.7723C55.6359 60.5262 0 58.6332 0 83.4859C0 112.218 40.2952 106.771 55.2487 110.06C78.1112 115.089 98.0561 133.9 122.483 131.42C143.749 129.261 151.856 112.573 154.814 93.4428C160.323 57.8017 146.791 18.7654 111.157 4.82293Z" fill="url(#paint0_linear_2098_3366)"/>
<path d="M119.669 29.2585H79.8806C77.9029 29.2619 76.0072 30.0495 74.6095 31.4488C73.2118 32.848 72.4262 34.7445 72.425 36.7223V61.926H60.79C59.2217 61.928 57.7183 62.5519 56.6094 63.6609C55.5006 64.7699 54.8768 66.2734 54.875 67.8417V96.8254C54.8768 98.3937 55.5006 99.8972 56.6094 101.006C57.7183 102.115 59.2217 102.739 60.79 102.741H103.665C105.233 102.739 106.737 102.115 107.846 101.006C108.955 99.8973 109.578 98.3937 109.58 96.8254V70.0717H119.672C121.648 70.0687 123.542 69.2822 124.94 67.8845C126.337 66.4869 127.123 64.5923 127.125 62.616V36.7223C127.124 34.7445 126.338 32.848 124.941 31.4488C123.543 30.0495 121.647 29.2619 119.669 29.2585ZM60.79 64.1135H103.665C104.653 64.1149 105.601 64.5081 106.299 65.207C106.998 65.9059 107.391 66.8534 107.392 67.8417V68.7792C107.366 68.911 107.366 69.0468 107.392 69.1785V71.3985H57.0625V67.8417C57.0635 66.8533 57.4565 65.9057 58.1553 65.2068C58.8541 64.5079 59.8017 64.1147 60.79 64.1135ZM107.39 80.4148H57.0625V73.5848H107.39V80.4148ZM103.662 100.554H60.7875C59.7996 100.552 58.8527 100.158 58.1544 99.4594C57.4562 98.7606 57.0635 97.8133 57.0625 96.8254V82.6023H107.39V96.8254C107.389 97.8137 106.996 98.7612 106.297 99.4601C105.598 100.159 104.651 100.552 103.662 100.554ZM124.938 62.616C124.936 64.0127 124.38 65.3517 123.393 66.3393C122.405 67.327 121.066 67.8825 119.669 67.8842H109.577V67.8417C109.576 66.2734 108.952 64.7699 107.843 63.6609C106.734 62.5519 105.231 61.928 103.662 61.926H74.6125V36.7223C74.613 35.3245 75.1679 33.984 76.1555 32.9948C77.1432 32.0057 78.4828 31.4487 79.8806 31.446H119.669C121.067 31.4487 122.407 32.0057 123.394 32.9948C124.382 33.984 124.937 35.3245 124.938 36.7223V62.616Z" fill="#4D8C50"/>
<path d="M97.6094 87.2109C96.6235 87.2108 95.6598 87.503 94.8401 88.0506C94.0203 88.5983 93.3813 89.3767 93.004 90.2874C92.6266 91.1982 92.5278 92.2004 92.7201 93.1673C92.9123 94.1342 93.387 95.0224 94.0841 95.7196C94.7811 96.4167 95.6692 96.8915 96.6361 97.0839C97.603 97.2762 98.6053 97.1776 99.5161 96.8003C100.427 96.4231 101.205 95.7842 101.753 94.9645C102.301 94.1449 102.593 93.1812 102.593 92.1953C102.592 90.8739 102.066 89.6071 101.132 88.6727C100.198 87.7383 98.9308 87.2126 97.6094 87.2109ZM97.6094 94.9916C97.0562 94.9917 96.5153 94.8277 96.0553 94.5205C95.5953 94.2132 95.2367 93.7764 95.0249 93.2653C94.8131 92.7542 94.7577 92.1918 94.8656 91.6492C94.9735 91.1066 95.2399 90.6082 95.6311 90.217C96.0223 89.8258 96.5207 89.5594 97.0633 89.4515C97.6059 89.3436 98.1683 89.3991 98.6794 89.6108C99.1905 89.8226 99.6273 90.1812 99.9345 90.6412C100.242 91.1013 100.406 91.6421 100.406 92.1953C100.405 92.9367 100.11 93.6474 99.5857 94.1716C99.0615 94.6959 98.3507 94.9907 97.6094 94.9916Z" fill="#4D8C50"/>
<path d="M78.5194 91.1016H73.4738C73.1837 91.1016 72.9055 91.2168 72.7004 91.4219C72.4952 91.627 72.38 91.9052 72.38 92.1953C72.38 92.4854 72.4952 92.7636 72.7004 92.9687C72.9055 93.1738 73.1837 93.2891 73.4738 93.2891H78.5194C78.8095 93.2891 79.0877 93.1738 79.2928 92.9687C79.4979 92.7636 79.6131 92.4854 79.6131 92.1953C79.6131 91.9052 79.4979 91.627 79.2928 91.4219C79.0877 91.2168 78.8095 91.1016 78.5194 91.1016Z" fill="#4D8C50"/>
<path d="M67.91 91.1016H62.8644C62.5743 91.1016 62.2961 91.2168 62.091 91.4219C61.8859 91.627 61.7706 91.9052 61.7706 92.1953C61.7706 92.4854 61.8859 92.7636 62.091 92.9687C62.2961 93.1738 62.5743 93.2891 62.8644 93.2891H67.91C68.2001 93.2891 68.4783 93.1738 68.6834 92.9687C68.8885 92.7636 69.0038 92.4854 69.0038 92.1953C69.0038 91.9052 68.8885 91.627 68.6834 91.4219C68.4783 91.2168 68.2001 91.1016 67.91 91.1016Z" fill="#4D8C50"/>
<path d="M97.775 39.8417C97.7737 38.9482 97.4181 38.0917 96.7863 37.46C96.1544 36.8282 95.2978 36.4728 94.4044 36.4717H84.105C83.2116 36.473 82.3552 36.8285 81.7235 37.4602C81.0918 38.0919 80.7363 38.9483 80.735 39.8417V47.0173C80.7361 47.9108 81.0915 48.7674 81.7233 49.3992C82.355 50.031 83.2115 50.3866 84.105 50.3879H94.4044C95.298 50.3868 96.1546 50.0313 96.7865 49.3994C97.4183 48.7676 97.7738 47.9109 97.775 47.0173V39.8417ZM95.5875 39.8417V42.3361H89.9506V38.6592H94.4044C94.7177 38.6603 95.0179 38.7853 95.2395 39.0068C95.4611 39.2283 95.5862 39.5284 95.5875 39.8417ZM94.4044 48.2004H84.105C83.7917 48.1991 83.4916 48.074 83.2701 47.8524C83.0486 47.6308 82.9236 47.3306 82.9225 47.0173V39.8417C82.9228 39.5282 83.0475 39.2276 83.2692 39.0059C83.4909 38.7842 83.7915 38.6595 84.105 38.6592H87.7631V43.4298C87.7633 43.7198 87.8786 43.9979 88.0836 44.203C88.2887 44.4081 88.5668 44.5234 88.8569 44.5236H95.5875V47.0173C95.5863 47.3307 95.4613 47.631 95.2397 47.8526C95.0181 48.0743 94.7178 48.1993 94.4044 48.2004Z" fill="#4D8C50"/>
<path d="M93.145 54.9937H82.8007C82.5106 54.9937 82.2324 55.1089 82.0273 55.314C81.8221 55.5191 81.7069 55.7973 81.7069 56.0874C81.7069 56.3775 81.8221 56.6557 82.0273 56.8608C82.2324 57.0659 82.5106 57.1812 82.8007 57.1812H93.145C93.4351 57.1812 93.7133 57.0659 93.9184 56.8608C94.1235 56.6557 94.2388 56.3775 94.2388 56.0874C94.2388 55.7973 94.1235 55.5191 93.9184 55.314C93.7133 55.1089 93.4351 54.9937 93.145 54.9937Z" fill="#4D8C50"/>
<path d="M106.937 54.9937H98.5381C98.248 54.9937 97.9698 55.1089 97.7647 55.314C97.5596 55.5191 97.4443 55.7973 97.4443 56.0874C97.4443 56.3775 97.5596 56.6557 97.7647 56.8608C97.9698 57.0659 98.248 57.1812 98.5381 57.1812H106.937C107.228 57.1812 107.506 57.0659 107.711 56.8608C107.916 56.6557 108.031 56.3775 108.031 56.0874C108.031 55.7973 107.916 55.5191 107.711 55.314C107.506 55.1089 107.228 54.9937 106.937 54.9937Z" fill="#4D8C50"/>
<path d="M116.75 54.9937H111.844C111.554 54.9937 111.275 55.1089 111.07 55.314C110.865 55.5191 110.75 55.7973 110.75 56.0874C110.75 56.3775 110.865 56.6557 111.07 56.8608C111.275 57.0659 111.554 57.1812 111.844 57.1812H116.75C117.04 57.1812 117.318 57.0659 117.523 56.8608C117.729 56.6557 117.844 56.3775 117.844 56.0874C117.844 55.7973 117.729 55.5191 117.523 55.314C117.318 55.1089 117.04 54.9937 116.75 54.9937Z" fill="#4D8C50"/>
<path d="M115.271 39.4036H106.382C105.7 39.4054 105.047 39.6772 104.566 40.1595C104.084 40.6417 103.813 41.2952 103.812 41.9767V45.3123C103.813 45.9944 104.085 46.6483 104.567 47.1307C105.049 47.613 105.703 47.8844 106.385 47.8854H115.274C115.956 47.8838 116.609 47.612 117.091 47.1297C117.572 46.6474 117.843 45.9939 117.844 45.3123V41.9767C117.843 41.2946 117.572 40.6406 117.09 40.1582C116.607 39.6758 115.953 39.4044 115.271 39.4036ZM115.656 45.3098C115.656 45.412 115.616 45.51 115.544 45.5823C115.471 45.6546 115.373 45.6953 115.271 45.6954H106.382C106.281 45.6945 106.184 45.6537 106.112 45.5821C106.041 45.5104 106.001 45.4135 106 45.3123V41.9767C106 41.8745 106.041 41.7765 106.113 41.7042C106.185 41.6319 106.283 41.5912 106.385 41.5911H115.274C115.377 41.5912 115.474 41.6319 115.547 41.7042C115.619 41.7765 115.659 41.8745 115.659 41.9767L115.656 45.3098Z" fill="#4D8C50"/>
<defs>
<linearGradient id="paint0_linear_2098_3366" x1="33.7487" y1="128.268" x2="134.85" y2="27.1667" gradientUnits="userSpaceOnUse">
<stop stop-color="#F6FCF6" stop-opacity="0"/>
<stop offset="1" stop-color="#E9FFE9"/>
</linearGradient>
</defs>
</svg>
