<svg width="156" height="132" viewBox="0 0 156 132" fill="none" xmlns="http://www.w3.org/2000/svg">
<path d="M111.157 4.82293C90.1037 -3.41429 60.9494 -0.284846 44.8381 14.4236C33.4623 24.8089 42.2669 27.7689 50.0227 46.7723C55.6359 60.5262 0 58.6332 0 83.4859C0 112.218 40.2952 106.771 55.2487 110.06C78.1112 115.089 98.0561 133.9 122.483 131.42C143.749 129.261 151.856 112.573 154.814 93.4428C160.323 57.8017 146.791 18.7654 111.157 4.82293Z" fill="url(#paint0_linear_2098_3385)"/>
<path d="M77.5575 63.5621C77.4808 63.351 77.341 63.1686 77.1571 63.0396C76.9731 62.9107 76.754 62.8416 76.5293 62.8416C76.3047 62.8416 76.0855 62.9107 75.9016 63.0396C75.7176 63.1686 75.5779 63.351 75.5012 63.5621L68.6543 82.414C68.5553 82.6867 68.5686 82.9875 68.6914 83.2504C68.8142 83.5132 69.0364 83.7165 69.309 83.8156C69.5817 83.9146 69.8826 83.9013 70.1454 83.7785C70.4082 83.6557 70.6116 83.4336 70.7106 83.1609L72.7525 77.5359H80.3062L82.3481 83.1609C82.4471 83.4336 82.6504 83.6557 82.9133 83.7785C83.1761 83.9013 83.477 83.9146 83.7497 83.8156C84.0223 83.7165 84.2445 83.5132 84.3673 83.2504C84.4901 82.9875 84.5034 82.6867 84.4043 82.414L77.5575 63.5621ZM73.5475 75.3509L76.5293 67.139L79.5118 75.3509H73.5475Z" fill="#4D8C50"/>
<path d="M122.234 33.2566H93.165C91.8034 33.2581 90.498 33.7996 89.5352 34.7624C88.5724 35.7252 88.0309 37.0306 88.0294 38.3922V54.7778C83.8718 52.2097 78.9743 51.1066 74.1172 51.6444C69.26 52.1821 64.7225 54.3297 61.2273 57.7451C57.7322 61.1606 55.4805 65.6474 54.8308 70.4908C54.1811 75.3343 55.1709 80.2558 57.6425 84.4716C58.3118 85.6099 58.5424 86.9534 58.2912 88.2497L56.5194 97.4435C56.4812 97.6408 56.4982 97.8449 56.5685 98.0332C56.6388 98.2215 56.7597 98.3868 56.9178 98.5109C57.0759 98.635 57.2652 98.7131 57.4649 98.7366C57.6645 98.7601 57.8667 98.7281 58.0494 98.6441L66.6437 94.7066C67.8365 94.1632 69.1846 94.0656 70.4431 94.4316C73.5634 95.3346 76.8455 95.532 80.0515 95.0095C83.2575 94.4869 86.307 93.2574 88.979 91.4102C91.6509 89.563 93.8783 87.1444 95.4997 84.3297C97.1211 81.5149 98.0958 78.3747 98.3531 75.1366C98.3731 74.8803 98.3813 74.6247 98.3925 74.3691H110.625C111.888 74.3681 113.105 74.8386 114.039 75.6885L119.37 80.5353C119.527 80.678 119.722 80.772 119.932 80.8057C120.141 80.8395 120.356 80.8116 120.55 80.7255C120.743 80.6394 120.908 80.4988 121.023 80.3208C121.139 80.1427 121.2 79.935 121.199 79.7228V74.3691H122.228C123.59 74.3674 124.895 73.8258 125.858 72.8631C126.82 71.9003 127.362 70.595 127.364 69.2335V38.3847C127.362 37.0248 126.821 35.7212 125.859 34.7598C124.898 33.7983 123.594 33.2577 122.234 33.2566ZM96.1719 74.9685C95.9386 77.882 95.0602 80.7072 93.6003 83.2394C92.1403 85.7715 90.1354 87.9472 87.7308 89.6088C85.3261 91.2704 82.5819 92.3763 79.6971 92.8463C76.8123 93.3164 73.859 93.1389 71.0512 92.3266C69.2891 91.8133 67.4012 91.9506 65.7319 92.7135L59.0694 95.7685L60.4375 88.6622C60.789 86.8437 60.465 84.9595 59.5262 83.3628C57.2213 79.433 56.3493 74.8259 57.0588 70.3255C57.7684 65.8252 60.0155 61.7098 63.4178 58.6797C66.82 55.6497 71.1672 53.8923 75.7193 53.7067C80.2715 53.5211 84.7473 54.9187 88.385 57.6616C88.4329 57.7066 88.485 57.747 88.5406 57.7822C91.1473 59.7814 93.2115 62.4019 94.5446 65.4044C95.8776 68.4068 96.4371 71.6954 96.1719 74.9697V74.9685ZM125.172 69.2335C125.171 70.015 124.86 70.7642 124.307 71.3168C123.754 71.8695 123.005 72.1804 122.224 72.1816H120.099C119.955 72.1815 119.813 72.2097 119.68 72.2647C119.547 72.3196 119.427 72.4002 119.325 72.5018C119.224 72.6033 119.143 72.7239 119.088 72.8567C119.033 72.9894 119.005 73.1317 119.005 73.2753V77.2535L115.505 74.0697C114.17 72.8548 112.43 72.1815 110.625 72.1816H98.375C98.2163 69.1112 97.4068 66.1096 96.0004 63.3757C94.5939 60.6418 92.6226 58.2379 90.2169 56.3235V38.3922C90.2179 37.6106 90.5288 36.8613 91.0815 36.3087C91.6341 35.756 92.3834 35.4451 93.165 35.4441H122.234C123.012 35.4459 123.758 35.756 124.309 36.3065C124.859 36.857 125.169 37.6031 125.171 38.3816L125.172 69.2335Z" fill="#4D8C50"/>
<path d="M116.522 61.2609C114.472 61.2586 112.506 60.4431 111.056 58.9934C109.606 57.5437 108.791 55.5781 108.788 53.5278V52.5953H113.829C114.119 52.5953 114.397 52.48 114.602 52.2749C114.807 52.0698 114.922 51.7916 114.922 51.5015C114.922 51.2115 114.807 50.9333 114.602 50.7281C114.397 50.523 114.119 50.4078 113.829 50.4078H108.788V44.9778C108.788 44.6877 108.673 44.4095 108.468 44.2044C108.263 43.9993 107.984 43.884 107.694 43.884C107.404 43.884 107.126 43.9993 106.921 44.2044C106.716 44.4095 106.601 44.6877 106.601 44.9778V50.4078H101.562C101.272 50.4078 100.994 50.523 100.789 50.7281C100.584 50.9333 100.469 51.2115 100.469 51.5015C100.469 51.7916 100.584 52.0698 100.789 52.2749C100.994 52.48 101.272 52.5953 101.562 52.5953H106.604V53.5278C106.601 55.5785 105.785 57.5445 104.335 58.9943C102.885 60.4441 100.918 61.2593 98.8675 61.2609C98.5774 61.2609 98.2992 61.3761 98.0941 61.5813C97.889 61.7864 97.7737 62.0646 97.7737 62.3547C97.7737 62.6447 97.889 62.9229 98.0941 63.1281C98.2992 63.3332 98.5774 63.4484 98.8675 63.4484C100.695 63.446 102.486 62.9392 104.043 61.9838C105.601 61.0285 106.864 59.6617 107.694 58.034C108.525 59.6617 109.788 61.0285 111.346 61.9839C112.904 62.9392 114.695 63.446 116.522 63.4484C116.812 63.4484 117.09 63.3332 117.295 63.1281C117.5 62.9229 117.616 62.6447 117.616 62.3547C117.616 62.0646 117.5 61.7864 117.295 61.5813C117.09 61.3761 116.812 61.2609 116.522 61.2609Z" fill="#4D8C50"/>
<defs>
<linearGradient id="paint0_linear_2098_3385" x1="33.7487" y1="128.268" x2="134.85" y2="27.1667" gradientUnits="userSpaceOnUse">
<stop stop-color="#F6FCF6" stop-opacity="0"/>
<stop offset="1" stop-color="#E9FFE9"/>
</linearGradient>
</defs>
</svg>
