<svg width="156" height="132" viewBox="0 0 156 132" fill="none" xmlns="http://www.w3.org/2000/svg">
<path d="M111.157 4.82293C90.1037 -3.41429 60.9494 -0.284846 44.8381 14.4236C33.4623 24.8089 42.2669 27.7689 50.0227 46.7723C55.6359 60.5262 0 58.6332 0 83.4859C0 112.218 40.2952 106.771 55.2487 110.06C78.1112 115.089 98.0561 133.9 122.483 131.42C143.749 129.261 151.856 112.573 154.814 93.4428C160.323 57.8017 146.791 18.7654 111.157 4.82293Z" fill="url(#paint0_linear_2098_3398)"/>
<path d="M123.312 57.1873H121.875C117.875 43.2498 105.125 33.9373 91 33.9373C77.0625 33.9373 64.1875 43.1248 60.125 57.1873H58.6875C56.25 57.1873 54.3125 59.1248 54.3125 61.5623V70.4373C54.3125 72.8748 56.25 74.8123 58.6875 74.8123H60.125C64.125 88.7498 76.8125 98.0623 91 98.0623C105.188 98.0623 117.875 88.6248 121.875 74.8123H123.312C125.75 74.8123 127.688 72.8748 127.688 70.4373V61.5623C127.688 59.1248 125.75 57.1873 123.312 57.1873ZM75.9375 57.1873C76.1875 55.5623 76.5625 54.0623 76.9375 52.5623H89.875V57.1873H75.9375ZM92.125 36.1873C97.125 36.8748 101.75 42.1873 104.438 50.3748H92.125V36.1873ZM89.9375 36.1873V50.3748H77.625C80.25 42.1873 84.875 36.8748 89.9375 36.1873ZM92.125 52.5623H105.063C105.438 54.0623 105.813 55.5623 106.063 57.1873H92.125V52.5623ZM108.25 57.1873C108 55.6248 107.688 54.0623 107.313 52.5623H117.688C118.438 54.0623 119.062 55.5623 119.562 57.1873H108.25ZM116.5 50.3748H106.688C104.875 44.5623 102.188 39.9998 98.9375 37.1873C106.25 39.1873 112.5 43.9373 116.5 50.3748ZM83.0625 37.1873C79.8125 39.9998 77.0625 44.5623 75.3125 50.3748H65.5C69.5 43.9373 75.75 39.2498 83.0625 37.1873ZM64.3125 52.5623H74.6875C74.3125 54.0623 74 55.5623 73.75 57.1873H62.4375C62.9375 55.6248 63.5625 54.0623 64.3125 52.5623ZM106.063 74.8123C105.813 76.4373 105.438 77.9373 105.063 79.4373H92.125V74.8123H106.063ZM89.9375 95.8122C84.9375 95.1247 80.3125 89.8123 77.625 81.6248H89.9375V95.8122ZM92.125 95.8122V81.6248H104.438C101.75 89.8123 97.125 95.1247 92.125 95.8122ZM89.9375 79.4373H76.9375C76.5625 77.9373 76.1875 76.4373 75.9375 74.8123H89.875V79.4373H89.9375ZM73.75 74.8123C74 76.3748 74.3125 77.9373 74.6875 79.4373H64.3125C63.5625 77.9373 62.9375 76.4373 62.4375 74.8123H73.75ZM65.5 81.6248H75.3125C77.125 87.4373 79.8125 91.9998 83.0625 94.8123C75.75 92.8123 69.5 88.0623 65.5 81.6248ZM98.9375 94.8123C102.188 91.9998 104.938 87.4373 106.688 81.6248H116.5C112.5 88.0623 106.25 92.8123 98.9375 94.8123ZM117.688 79.4373H107.313C107.688 77.9373 108 76.4373 108.25 74.8123H119.562C119.062 76.3748 118.438 77.9373 117.688 79.4373ZM125.5 70.4373C125.5 71.6248 124.5 72.6248 123.312 72.6248H58.6875C57.5 72.6248 56.5 71.6248 56.5 70.4373V61.5623C56.5 60.3748 57.5 59.3748 58.6875 59.3748H123.312C124.5 59.3748 125.5 60.3748 125.5 61.5623V70.4373Z" fill="#4D8C50"/>
<path d="M79.75 61.3748C79.1875 61.1248 78.5625 61.4373 78.3125 61.9373L76.3125 66.7498L74.3125 61.9373C74.0625 61.3748 73.4375 61.1248 72.875 61.3748C72.625 61.4998 72.375 61.6873 72.3125 61.9373L70.3125 66.7498L68.3125 61.9373C68.0625 61.3748 67.4375 61.1248 66.875 61.3123C66.3125 61.5623 66.0625 62.1873 66.25 62.7498L69.25 69.9998C69.5 70.5623 70.125 70.8123 70.6875 70.5623C70.9375 70.4373 71.1875 70.2498 71.25 69.9998L73.25 65.1873L75.25 69.9998C75.5 70.5623 76.125 70.8123 76.6875 70.5623C76.9375 70.4373 77.1875 70.2498 77.25 69.9998L80.25 62.7498C80.5625 62.2498 80.3125 61.6248 79.75 61.3748Z" fill="#4D8C50"/>
<path d="M97.4375 61.3748C96.875 61.1248 96.25 61.4373 96 61.9373L94 66.7498L92 61.9373C91.75 61.3748 91.125 61.1248 90.5625 61.3748C90.3125 61.4998 90.0625 61.6873 90 61.9373L88 66.7498L86 61.9373C85.75 61.3748 85.125 61.1248 84.5625 61.3123C84 61.5623 83.75 62.1873 83.9375 62.7498L86.9375 69.9998C87.1875 70.5623 87.8125 70.8123 88.375 70.5623C88.625 70.4373 88.875 70.2498 88.9375 69.9998L90.9375 65.1873L92.9375 69.9998C93.1875 70.5623 93.8125 70.8123 94.375 70.5623C94.625 70.4373 94.875 70.2498 94.9375 69.9998L97.9375 62.7498C98.25 62.2498 98 61.6248 97.4375 61.3748Z" fill="#4D8C50"/>
<path d="M115.187 61.3747C114.625 61.1247 114 61.4372 113.75 61.9372L111.75 66.7497L109.75 61.9372C109.5 61.3747 108.875 61.1247 108.312 61.3747C108.062 61.4997 107.812 61.6872 107.75 61.9372L105.75 66.7497L103.75 61.9372C103.5 61.3747 102.875 61.1247 102.312 61.3747C101.75 61.6247 101.5 62.2497 101.75 62.8122L104.75 70.0622C105 70.6247 105.625 70.8747 106.187 70.6247C106.437 70.4997 106.687 70.3122 106.75 70.0622L108.75 65.2497L110.75 70.0622C111 70.6247 111.625 70.8747 112.187 70.6247C112.437 70.4997 112.687 70.3122 112.75 70.0622L115.75 62.8122C116 62.2497 115.75 61.6247 115.187 61.3747Z" fill="#4D8C50"/>
<defs>
<linearGradient id="paint0_linear_2098_3398" x1="33.7487" y1="128.268" x2="134.85" y2="27.1667" gradientUnits="userSpaceOnUse">
<stop stop-color="#F6FCF6" stop-opacity="0"/>
<stop offset="1" stop-color="#E9FFE9"/>
</linearGradient>
</defs>
</svg>
