<svg width="156" height="156" viewBox="0 0 156 156" fill="none" xmlns="http://www.w3.org/2000/svg">
<path d="M111.157 16.467C90.1037 8.22975 60.9494 11.3592 44.8381 26.0677C33.4623 36.453 42.2669 39.413 50.0227 58.4163C55.6359 72.1702 0 70.2772 0 95.13C0 123.862 40.2952 118.415 55.2487 121.704C78.1112 126.733 98.0561 145.544 122.483 143.064C143.749 140.905 151.856 124.217 154.814 105.087C160.323 69.4457 146.791 30.4095 111.157 16.467Z" fill="url(#paint0_linear_2098_3412)"/>
<path d="M79.1469 75.542C79.0143 75.4867 78.8722 75.4581 78.7286 75.4578C78.585 75.4574 78.4427 75.4854 78.3099 75.5401C78.1771 75.5948 78.0564 75.6751 77.9546 75.7764C77.8528 75.8778 77.7721 75.9982 77.7169 76.1308L74.9556 82.7558L72.1944 76.1308C72.1115 75.9314 71.9714 75.761 71.7917 75.6411C71.6121 75.5212 71.401 75.4573 71.185 75.4573C70.969 75.4573 70.7579 75.5212 70.5783 75.6411C70.3986 75.761 70.2585 75.9314 70.1756 76.1308L67.4137 82.7558L64.6525 76.1308C64.5973 75.9982 64.5164 75.8778 64.4147 75.7764C64.3129 75.675 64.1922 75.5947 64.0593 75.54C63.9265 75.4853 63.7842 75.4573 63.6406 75.4576C63.497 75.4579 63.3548 75.4865 63.2222 75.5417C63.0896 75.597 62.9692 75.6778 62.8678 75.7795C62.7664 75.8813 62.6861 76.0021 62.6314 76.1349C62.5767 76.2677 62.5487 76.41 62.549 76.5536C62.5493 76.6973 62.5779 76.8394 62.6331 76.972L66.4037 86.0226C66.4868 86.222 66.627 86.3923 66.8067 86.5122C66.9863 86.632 67.1975 86.6959 67.4134 86.6959C67.6294 86.6959 67.8405 86.632 68.0202 86.5122C68.1999 86.3923 68.3401 86.222 68.4231 86.0226L71.1875 79.3939L73.9487 86.0189C74.0316 86.2183 74.1718 86.3887 74.3514 86.5086C74.531 86.6284 74.7422 86.6924 74.9581 86.6924C75.1741 86.6924 75.3852 86.6284 75.5648 86.5086C75.7445 86.3887 75.8846 86.2183 75.9675 86.0189L79.7387 76.9683C79.8491 76.7006 79.8487 76.4001 79.7377 76.1328C79.6268 75.8654 79.4143 75.6529 79.1469 75.542Z" fill="#4D8C50"/>
<path d="M98.9625 75.542C98.8299 75.4867 98.6878 75.4581 98.5442 75.4578C98.4006 75.4574 98.2583 75.4854 98.1255 75.5401C97.9927 75.5948 97.872 75.6751 97.7702 75.7764C97.6685 75.8778 97.5877 75.9982 97.5325 76.1308L94.7706 82.7558L92.0094 76.1308C91.9265 75.9314 91.7864 75.761 91.6067 75.6411C91.4271 75.5212 91.216 75.4573 91 75.4573C90.784 75.4573 90.5729 75.5212 90.3933 75.6411C90.2136 75.761 90.0735 75.9314 89.9906 76.1308L87.2294 82.7558L84.4675 76.1308C84.3559 75.863 84.1424 75.6505 83.8741 75.5401C83.6058 75.4297 83.3047 75.4304 83.0369 75.542C82.7691 75.6537 82.5566 75.8671 82.4462 76.1354C82.3358 76.4037 82.3365 76.7049 82.4481 76.9726L86.22 86.0226C86.3029 86.2221 86.443 86.3925 86.6227 86.5123C86.8023 86.6322 87.0134 86.6962 87.2294 86.6962C87.4453 86.6962 87.6565 86.6322 87.8361 86.5123C88.0157 86.3925 88.1558 86.2221 88.2387 86.0226L91 79.3939L93.7612 86.0189C93.8441 86.2183 93.9843 86.3887 94.1639 86.5086C94.3435 86.6284 94.5547 86.6924 94.7706 86.6924C94.9866 86.6924 95.1977 86.6284 95.3773 86.5086C95.557 86.3887 95.6971 86.2183 95.78 86.0189L99.5519 76.9689C99.6623 76.7015 99.6624 76.4012 99.5519 76.1337C99.4414 75.8663 99.2295 75.6535 98.9625 75.542Z" fill="#4D8C50"/>
<path d="M118.778 75.542C118.645 75.4867 118.503 75.458 118.359 75.4576C118.216 75.4572 118.073 75.4852 117.94 75.5398C117.808 75.5945 117.687 75.6749 117.585 75.7763C117.483 75.8777 117.403 75.9981 117.348 76.1308L114.586 82.7558L111.824 76.1308C111.741 75.9314 111.601 75.761 111.422 75.6411C111.242 75.5212 111.031 75.4573 110.815 75.4573C110.599 75.4573 110.388 75.5212 110.208 75.6411C110.029 75.761 109.889 75.9314 109.806 76.1308L107.044 82.7558L104.283 76.1308C104.172 75.863 103.958 75.6505 103.69 75.54C103.422 75.4295 103.121 75.4302 102.853 75.5417C102.585 75.6533 102.373 75.8666 102.262 76.1349C102.152 76.4031 102.152 76.7042 102.264 76.972L106.035 86.0226C106.118 86.2221 106.258 86.3925 106.438 86.5123C106.617 86.6322 106.828 86.6962 107.044 86.6962C107.26 86.6962 107.471 86.6322 107.651 86.5123C107.831 86.3925 107.971 86.2221 108.054 86.0226L110.813 79.3939L113.574 86.0189C113.657 86.2183 113.798 86.3886 113.977 86.5084C114.157 86.6282 114.368 86.6922 114.584 86.6922C114.8 86.6922 115.011 86.6282 115.191 86.5084C115.371 86.3886 115.511 86.2183 115.594 86.0189L119.364 76.9683C119.475 76.7012 119.475 76.4013 119.365 76.134C119.255 75.8667 119.044 75.6539 118.778 75.542Z" fill="#4D8C50"/>
<path d="M127.793 58.4763C127.793 58.4701 127.793 58.4644 127.793 58.4582V49.8738C127.791 48.206 127.128 46.6068 125.949 45.4271C124.77 44.2474 123.172 43.5836 121.504 43.5813H60.4963C58.8288 43.5841 57.2305 44.2482 56.0519 45.4278C54.8733 46.6074 54.2107 48.2063 54.2094 49.8738V58.4563V58.4744C54.2094 58.4744 54.2094 58.4863 54.2094 58.4926V98.4738C54.2102 100.142 54.8726 101.741 56.0512 102.921C57.2298 104.101 58.8284 104.766 60.4963 104.769H64.625C64.5375 104.969 64.5126 105.192 64.5536 105.407C64.5947 105.622 64.6997 105.82 64.855 105.974L70.2669 111.386C70.3684 111.487 70.489 111.568 70.6217 111.623C70.7544 111.678 70.8967 111.706 71.0403 111.706C71.184 111.706 71.3262 111.678 71.459 111.623C71.5917 111.568 71.7122 111.487 71.8138 111.386L76.9069 106.293L79.0663 108.453C79.1987 108.585 79.3628 108.681 79.5429 108.731C79.7231 108.782 79.9132 108.785 80.0951 108.742C80.277 108.698 80.4445 108.608 80.5817 108.481C80.719 108.353 80.8212 108.193 80.8788 108.015L81.9219 104.77H121.5C123.168 104.767 124.767 104.103 125.945 102.922C127.124 101.742 127.786 100.142 127.787 98.4744V58.4944C127.791 58.4882 127.793 58.4826 127.793 58.4763ZM60.4963 45.7688H121.504C122.592 45.7711 123.634 46.2049 124.403 46.9749C125.171 47.7449 125.603 48.7884 125.603 49.8763V57.3826H56.3969V49.8738C56.3977 48.7863 56.8297 47.7435 57.5981 46.974C58.3666 46.2045 59.4088 45.7711 60.4963 45.7688ZM79.3481 105.644L77.6819 103.978C77.5804 103.876 77.4599 103.795 77.3272 103.74C77.1946 103.685 77.0524 103.657 76.9088 103.657C76.7651 103.657 76.6229 103.685 76.4903 103.74C76.3576 103.795 76.2371 103.876 76.1356 103.978L71.0419 109.07L67.1769 105.204L72.27 100.112C72.3717 100.01 72.4523 99.8898 72.5073 99.7571C72.5623 99.6244 72.5907 99.4822 72.5907 99.3385C72.5907 99.1948 72.5623 99.0526 72.5073 98.9199C72.4523 98.7871 72.3717 98.6666 72.27 98.5651L70.6038 96.8938L83.4888 92.7563L79.3481 105.644ZM121.504 102.586H82.6288L86.2225 91.3982C86.2837 91.2069 86.291 91.0024 86.2437 90.8072C86.1964 90.612 86.0962 90.4336 85.9542 90.2915C85.8121 90.1495 85.6337 90.0493 85.4385 90.002C85.2433 89.9546 85.0388 89.962 84.8475 90.0232L68.2288 95.3619C68.0508 95.4196 67.8907 95.5219 67.7636 95.6592C67.6365 95.7964 67.5467 95.9639 67.5028 96.1458C67.4589 96.3276 67.4624 96.5176 67.5129 96.6977C67.5634 96.8778 67.6592 97.0419 67.7913 97.1744L69.9513 99.3344L66.7031 102.581H60.4963C59.4082 102.579 58.3656 102.145 57.597 101.375C56.8285 100.605 56.3969 99.5612 56.3969 98.4732V59.5701H125.603V98.4757C125.602 99.5633 125.171 100.606 124.402 101.376C123.634 102.145 122.591 102.579 121.504 102.581V102.586Z" fill="#4D8C50"/>
<path d="M63.2337 55.1219C63.9354 55.1221 64.6214 54.9143 65.205 54.5246C65.7885 54.1349 66.2434 53.581 66.5121 52.9328C66.7808 52.2846 66.8512 51.5713 66.7145 50.883C66.5777 50.1948 66.24 49.5626 65.7439 49.0663C65.2478 48.5701 64.6157 48.2321 63.9275 48.0951C63.2394 47.9581 62.526 48.0283 61.8777 48.2968C61.2294 48.5652 60.6753 49.0199 60.2854 49.6033C59.8956 50.1868 59.6875 50.8727 59.6875 51.5744C59.6885 52.5147 60.0624 53.4162 60.7272 54.0813C61.392 54.7463 62.2934 55.1205 63.2337 55.1219ZM63.2337 50.215C63.5028 50.2147 63.7659 50.2943 63.9897 50.4436C64.2136 50.5929 64.3881 50.8053 64.4912 51.0538C64.5943 51.3023 64.6214 51.5759 64.569 51.8398C64.5166 52.1037 64.3871 52.3461 64.1969 52.5364C64.0067 52.7267 63.7643 52.8563 63.5004 52.9088C63.2365 52.9613 62.963 52.9344 62.7144 52.8314C62.4658 52.7284 62.2534 52.554 62.104 52.3302C61.9546 52.1065 61.8749 51.8434 61.875 51.5744C61.8755 51.2141 62.0188 50.8687 62.2735 50.6139C62.5282 50.3591 62.8735 50.2156 63.2337 50.215Z" fill="#4D8C50"/>
<path d="M73.0713 55.1219C73.7729 55.122 74.4588 54.914 75.0423 54.5243C75.6258 54.1346 76.0806 53.5806 76.3492 52.9324C76.6178 52.2841 76.6881 51.5708 76.5513 50.8827C76.4145 50.1945 76.0767 49.5623 75.5806 49.0661C75.0845 48.5699 74.4524 48.232 73.7642 48.0951C73.076 47.9581 72.3627 48.0284 71.7145 48.2968C71.0662 48.5653 70.5121 49.02 70.1223 49.6034C69.7325 50.1868 69.5244 50.8727 69.5244 51.5744C69.5254 52.5148 69.8994 53.4164 70.5643 54.0815C71.2292 54.7466 72.1308 55.1207 73.0713 55.1219ZM73.0713 50.215C73.3403 50.2149 73.6033 50.2945 73.8271 50.4439C74.0508 50.5933 74.2252 50.8057 74.3282 51.0542C74.4313 51.3028 74.4582 51.5763 74.4058 51.8402C74.3533 52.104 74.2238 52.3464 74.0335 52.5366C73.8433 52.7269 73.6009 52.8564 73.3371 52.9089C73.0732 52.9613 72.7997 52.9344 72.5511 52.8313C72.3026 52.7283 72.0902 52.5539 71.9408 52.3302C71.7914 52.1064 71.7118 51.8434 71.7119 51.5744C71.7122 51.2139 71.8555 50.8684 72.1104 50.6135C72.3653 50.3586 72.7108 50.2153 73.0713 50.215Z" fill="#4D8C50"/>
<path d="M82.9094 55.1219C83.611 55.1219 84.2969 54.9138 84.8803 54.524C85.4636 54.1342 85.9183 53.5801 86.1868 52.9319C86.4553 52.2837 86.5256 51.5704 86.3887 50.8823C86.2518 50.1941 85.914 49.562 85.4178 49.0659C84.9217 48.5698 84.2896 48.2319 83.6015 48.095C82.9133 47.9581 82.2 48.0284 81.5518 48.2969C80.9036 48.5654 80.3495 49.0201 79.9597 49.6035C79.5699 50.1869 79.3619 50.8727 79.3619 51.5744C79.3627 52.515 79.7367 53.4168 80.4018 54.0819C81.0669 54.747 81.9688 55.121 82.9094 55.1219ZM82.9094 50.215C83.1784 50.215 83.4414 50.2948 83.665 50.4442C83.8887 50.5937 84.063 50.8061 84.1659 51.0547C84.2688 51.3032 84.2957 51.5767 84.2432 51.8405C84.1907 52.1044 84.0611 52.3467 83.8708 52.5369C83.6806 52.727 83.4382 52.8565 83.1743 52.9089C82.9105 52.9613 82.637 52.9343 82.3885 52.8313C82.14 52.7282 81.9276 52.5538 81.7783 52.3301C81.6289 52.1064 81.5493 51.8434 81.5494 51.5744C81.5497 51.2138 81.6931 50.8682 81.9481 50.6133C82.2031 50.3584 82.5488 50.2151 82.9094 50.215Z" fill="#4D8C50"/>
<defs>
<linearGradient id="paint0_linear_2098_3412" x1="33.7487" y1="139.912" x2="134.85" y2="38.8107" gradientUnits="userSpaceOnUse">
<stop stop-color="#F6FCF6" stop-opacity="0"/>
<stop offset="1" stop-color="#E9FFE9"/>
</linearGradient>
</defs>
</svg>
