<svg width="23" height="23" viewBox="0 0 23 23" fill="none" xmlns="http://www.w3.org/2000/svg">
<path d="M6.86565 1.25564L6.56559 0.568273L6.86565 1.25564ZM1.25596 6.86474L0.568673 6.56452L1.25596 6.86474ZM6.86441 21.1477L6.5641 21.8349L6.86441 21.1477ZM15.1679 21.3018L15.4424 21.9998L15.1679 21.3018ZM15.5395 21.1476L15.2392 20.4604L15.5395 21.1476ZM21.1484 15.5397L20.4611 15.2393L21.1484 15.5397ZM1.256 15.5387L0.568736 15.839L1.256 15.5387ZM21.1484 6.86445L20.4611 7.16482L21.1484 6.86445ZM21.3022 15.1691L22.0001 15.4436L21.3022 15.1691ZM15.5384 1.2557L15.2383 1.94305L15.5384 1.2557ZM15.1681 1.10219L14.8938 1.80022C15.0097 1.84576 15.1245 1.89338 15.2383 1.94305L15.5384 1.2557L15.8385 0.568363C15.7077 0.511275 15.5757 0.456525 15.4425 0.404166L15.1681 1.10219ZM21.1484 6.86445L20.4611 7.16482C20.5107 7.27827 20.5583 7.39279 20.6038 7.50835L21.3017 7.23369L21.9996 6.95902C21.9473 6.82616 21.8926 6.6945 21.8356 6.56409L21.1484 6.86445ZM21.3022 15.1691L20.6042 14.8945C20.5586 15.0105 20.5109 15.1255 20.4611 15.2393L21.1484 15.5397L21.8356 15.84C21.8928 15.7091 21.9477 15.577 22.0001 15.4436L21.3022 15.1691ZM15.5395 21.1476L15.2392 20.4604C15.125 20.5103 15.0098 20.5581 14.8935 20.6039L15.1679 21.3018L15.4424 21.9998C15.5762 21.9472 15.7087 21.8922 15.8399 21.8349L15.5395 21.1476ZM7.23448 21.3013L7.50903 20.6033C7.3932 20.5578 7.27841 20.5101 7.16471 20.4604L6.86441 21.1477L6.5641 21.8349C6.6948 21.892 6.82676 21.9468 6.95993 21.9992L7.23448 21.3013ZM1.256 15.5387L1.94327 15.2385C1.89374 15.1251 1.84623 15.0106 1.80079 14.8951L1.10287 15.1697L0.404941 15.4443C0.457181 15.5771 0.511797 15.7087 0.568736 15.839L1.256 15.5387ZM1.10316 7.23297L1.80108 7.50757C1.84642 7.39232 1.89383 7.2781 1.94325 7.16496L1.25596 6.86474L0.568673 6.56452C0.511863 6.69457 0.457367 6.82587 0.405235 6.95837L1.10316 7.23297ZM6.86565 1.25564L7.1657 1.943C7.27896 1.89356 7.3933 1.84613 7.50868 1.80078L7.23428 1.10278L6.95987 0.404779C6.82723 0.456924 6.69579 0.511439 6.56559 0.568273L6.86565 1.25564ZM7.23428 1.10278L7.50868 1.80078C7.80429 1.68456 8.195 1.76348 8.89752 2.05434C9.20194 2.18037 9.58776 2.35429 9.94995 2.48265C10.3225 2.61468 10.7511 2.73047 11.2029 2.73047L11.2029 1.98047L11.2029 1.23047C10.9978 1.23047 10.7548 1.17647 10.451 1.06882C10.137 0.957519 9.842 0.82189 9.47132 0.66842C8.82363 0.400268 7.88691 0.0403358 6.95987 0.404779L7.23428 1.10278ZM4.68237 4.68164L5.21275 5.21192C5.53214 4.89248 5.75317 4.50764 5.92306 4.15098C6.08826 3.80418 6.23787 3.40859 6.36384 3.10428C6.65453 2.40208 6.87471 2.07002 7.1657 1.943L6.86565 1.25564L6.56559 0.568273C5.65311 0.9666 5.24587 1.88323 4.97791 2.53054C4.82455 2.90099 4.71202 3.20536 4.56885 3.50591C4.43039 3.79659 4.29683 4.0065 4.15199 4.15136L4.68237 4.68164ZM1.25596 6.86474L1.94325 7.16496C2.07038 6.87393 2.40257 6.65378 3.10488 6.36313C3.40925 6.23716 3.80485 6.08759 4.1517 5.92238C4.50839 5.75248 4.89325 5.53142 5.2127 5.21197L4.68237 4.68164L4.15204 4.15131C4.00721 4.29615 3.79733 4.4297 3.50666 4.56815C3.20614 4.71129 2.90173 4.82382 2.53128 4.97713C1.88394 5.24504 0.967214 5.65215 0.568673 6.56452L1.25596 6.86474ZM1.9812 11.2021L2.7312 11.2021C2.73117 10.7502 2.6153 10.3215 2.4832 9.94894C2.35476 9.5867 2.18075 9.20081 2.05466 8.89637C1.76366 8.19373 1.6848 7.80309 1.80108 7.50757L1.10316 7.23297L0.405235 6.95837C0.0404174 7.88559 0.400535 8.82255 0.668811 9.47032C0.822363 9.84108 0.958058 10.1361 1.06943 10.4502C1.17715 10.754 1.23119 10.9971 1.2312 11.2022L1.9812 11.2021ZM1.10287 15.1697L1.80079 14.8951C1.68462 14.5999 1.76344 14.2096 2.05452 13.5073C2.18063 13.203 2.35469 12.8173 2.48316 12.4551C2.6153 12.0827 2.7312 11.6541 2.7312 11.2021H1.9812H1.2312C1.2312 11.4071 1.17719 11.65 1.06949 11.9536C0.958117 12.2676 0.822408 12.5624 0.668819 12.933C0.400489 13.5804 0.0401432 14.5171 0.404941 15.4443L1.10287 15.1697ZM6.86441 21.1477L7.16471 20.4604C6.87386 20.3333 6.65387 20.0014 6.3634 19.2994C6.23752 18.9952 6.08803 18.5997 5.92289 18.253C5.75306 17.8964 5.53208 17.5117 5.2127 17.1923L4.68237 17.7227L4.15204 18.253C4.2968 18.3977 4.43028 18.6075 4.56865 18.898C4.7117 19.1984 4.82415 19.5026 4.97738 19.8729C5.24512 20.52 5.65202 21.4364 6.5641 21.8349L6.86441 21.1477ZM15.1679 21.3018L14.8935 20.6039C14.5984 20.7199 14.2085 20.6412 13.5068 20.3503C13.2027 20.2243 12.8172 20.0503 12.4553 19.9219C12.0831 19.7898 11.6547 19.6739 11.2031 19.6738L11.2029 20.4238L11.2027 21.1738C11.4075 21.1739 11.6503 21.2279 11.9537 21.3355C12.2674 21.4469 12.562 21.5825 12.9324 21.736C13.5794 22.0042 14.5156 22.3643 15.4424 21.9998L15.1679 21.3018ZM17.7234 17.7227L17.1931 17.1923C16.8738 17.5116 16.6527 17.8962 16.4827 18.2527C16.3174 18.5993 16.1677 18.9947 16.0416 19.2989C15.7507 20.0008 15.5304 20.3332 15.2392 20.4604L15.5395 21.1476L15.8399 21.8349C16.7517 21.4364 17.1591 20.5204 17.4273 19.8733C17.5808 19.503 17.6934 19.1987 17.8367 18.8983C17.9752 18.6077 18.1088 18.3979 18.2537 18.253L17.7234 17.7227ZM21.1484 15.5397L20.4611 15.2393C20.334 15.5303 20.0018 15.7505 19.2999 16.0413C18.9957 16.1673 18.6003 16.3169 18.2536 16.4821C17.8971 16.652 17.5124 16.873 17.1931 17.1923L17.7234 17.7227L18.2537 18.253C18.3985 18.1082 18.6083 17.9747 18.8989 17.8362C19.1993 17.693 19.5036 17.5805 19.8739 17.4271C20.521 17.1591 21.4371 16.7519 21.8356 15.84L21.1484 15.5397ZM4.68237 17.7227L5.21269 17.1923C4.89328 16.8729 4.50849 16.6518 4.15184 16.4819C3.80504 16.3166 3.40947 16.1669 3.10511 16.0408C2.40288 15.75 2.0705 15.5297 1.94327 15.2385L1.256 15.5387L0.568736 15.839C0.967275 16.7512 1.88377 17.1585 2.53112 17.4267C2.90156 17.5801 3.20597 17.6927 3.50652 17.836C3.79722 17.9745 4.00716 18.1081 4.15206 18.253L4.68237 17.7227ZM21.3017 7.23369L20.6038 7.50835C20.72 7.8038 20.6413 8.1944 20.3506 8.89689C20.2246 9.20126 20.0507 9.58712 19.9224 9.94926C19.7904 10.3218 19.6746 10.7503 19.6746 11.2021L20.4246 11.2021L21.1746 11.2022C21.1746 10.9971 21.2286 10.754 21.3362 10.4503C21.4475 10.1362 21.5831 9.84123 21.7366 9.4705C22.0046 8.82278 22.3644 7.88598 21.9996 6.95902L21.3017 7.23369ZM17.7234 4.68164L17.1932 5.21207C17.5125 5.53129 17.8972 5.75227 18.2537 5.92215C18.6003 6.08733 18.9957 6.23694 19.2999 6.36292C20.0018 6.6536 20.3339 6.87379 20.4611 7.16482L21.1484 6.86445L21.8356 6.56409C21.4371 5.65224 20.521 5.24507 19.8739 4.97707C19.5036 4.82372 19.1993 4.71118 18.8989 4.56802C18.6083 4.42956 18.3985 4.29603 18.2536 4.15121L17.7234 4.68164ZM20.4246 11.2021H19.6746C19.6746 11.6539 19.7904 12.0824 19.9224 12.4548C20.0508 12.8169 20.2247 13.2026 20.3508 13.5068C20.6416 14.209 20.7204 14.5993 20.6042 14.8945L21.3022 15.1691L22.0001 15.4436C22.3648 14.5167 22.0047 13.5802 21.7366 12.9328C21.5831 12.5623 21.4475 12.2674 21.3362 11.9536C21.2285 11.65 21.1746 11.4071 21.1746 11.2021H20.4246ZM11.2029 20.4238L11.2029 19.6738C10.751 19.6738 10.3225 19.7896 9.94995 19.9216C9.58779 20.05 9.20197 20.2239 8.8976 20.3499C8.19514 20.6407 7.80456 20.7196 7.50903 20.6033L7.23448 21.3013L6.95993 21.9992C7.88698 22.3639 8.82371 22.004 9.47137 21.7359C9.84205 21.5824 10.137 21.4468 10.451 21.3355C10.7548 21.2278 10.9978 21.1738 11.2029 21.1738L11.2029 20.4238ZM15.5384 1.2557L15.2383 1.94305C15.5296 2.07024 15.7501 2.40264 16.0412 3.10473C16.1673 3.40903 16.3172 3.80457 16.4825 4.15131C16.6526 4.5079 16.8737 4.89262 17.1931 5.21197L17.7234 4.68164L18.2537 4.15131C18.1088 4.00635 17.9751 3.79636 17.8364 3.50564C17.6931 3.20506 17.5804 2.90069 17.4268 2.53026C17.1584 1.88292 16.7507 0.96666 15.8385 0.568363L15.5384 1.2557ZM15.1681 1.10219L15.4425 0.404166C14.5156 0.0398953 13.5795 0.400073 12.9324 0.668283C12.5621 0.821803 12.2674 0.957432 11.9537 1.06876C11.6503 1.17641 11.4075 1.23042 11.2027 1.23047L11.2029 1.98047L11.203 2.73047C11.6547 2.73037 12.0831 2.61448 12.4553 2.4824C12.8173 2.35397 13.2027 2.18 13.5068 2.05396C14.2087 1.76303 14.5987 1.68422 14.8938 1.80022L15.1681 1.10219Z" fill="#C7C7C7"/>
<circle opacity="0.3" cx="8.57666" cy="8.57644" r="0.791538" transform="rotate(45 8.57666 8.57644)" fill="#C7C7C7"/>
<circle opacity="0.3" cx="12.9796" cy="12.9795" r="0.791538" transform="rotate(45 12.9796 12.9795)" fill="#C7C7C7"/>
<path opacity="0.3" d="M8.77364 13.631L13.6312 8.77344" stroke="#C7C7C7" stroke-width="1.5" stroke-linecap="round" stroke-linejoin="round"/>
</svg>
